# xmcd
#
# Track frame offsets: 
#        150
#        12688
#        28332
#        41525
#        53687
#        69075
#        82586
#        94285
#        108971
#        118608
#        129117
#        140926
#        153070
#        163935
#        183786
#        199396
#        216951
#        227321
#        239861
#
# Disc length: 3355 seconds
#
# Revision: 0
# Processed by: cddbd v1.5.2PL0 Copyright (c) Steve Scherf et al.
# Submitted via: ExactAudioCopy v0.95b4
#
DISCID=010d1913
DTITLE=Sir Douglas Quintet - Scandinavian Years
DYEAR=2008
DGENRE=Country
TTITLE0=Someday
TTITLE1=Carol Jane
TTITLE2=Meet Me In Stockholm
TTITLE3=Be Real
TTITLE4=Little Georgie Baker
TTITLE5=Never Be A Saint
TTITLE6=Viking Girl
TTITLE7=Can't Go Back To Austin
TTITLE8=Que Paso
TTITLE9=Who Were You Thinking Of
TTITLE10=Adios Mexico
TTITLE11=I Know You Know
TTITLE12=Velma From Selma
TTITLE13=The Ballad Of The Wasa
TTITLE14=No Way Like Norway
TTITLE15=Train To Trondheim
TTITLE16=I Wanna Fall In Love Again
TTITLE17=Susie Darling
TTITLE18=What Ya Gonna Do For Love
EXTD=
EXTT0=
EXTT1=
EXTT2=
EXTT3=
EXTT4=
EXTT5=
EXTT6=
EXTT7=
EXTT8=
EXTT9=
EXTT10=
EXTT11=
EXTT12=
EXTT13=
EXTT14=
EXTT15=
EXTT16=
EXTT17=
EXTT18=
PLAYORDER=
